<?xml version="1.0" encoding="UTF-8"?>
<svg id="Layer_2" data-name="Layer 2" xmlns="http://www.w3.org/2000/svg" viewBox="0 0 310.45 185.03">
  <path d="M62.66,149.35c-.11.03-.22.03-.33-.01.11,0,.22,0,.33.01Z"/>
  <path d="M151.15,47.53s-.1-.03-.15-.05c-.19-.08-.35-.2-.48-.35.21.13.42.26.63.4Z"/>
  <path d="M126.95,172.92c-.04.11-.07.23-.1.35,0-.12,0-.22.01-.34.03.01.06,0,.09-.01Z"/>
  <path d="M113.44,147.99c-1.38.58-3.97,1.46-7.02,1.46-2.36,0-5.01-.53-7.59-2.13-6.79-4.2-10.7-14.18-11.61-29.66-.48-5.99,3.29-13.38,12.79-16.3,6.32-1.97,12.62-.07,15.67,4.73l.06.1c1.35,2.14,3.23,5.27,4.99,8.78,1.76,3.52,3.4,7.42,4.27,11.1,2.77,10.43-1.43,18.43-11.56,21.92Z"/>
  <path d="M149.22,100.24c-2.43,4.84-5.18,6.11-7.39,6.11-.49,0-.95-.06-1.37-.16-5.8-1.37-13.26-9.34-15.09-14.67-.05-.16-.08-.32-.07-.49.03-1.24.88-1.61,1.25-1.72,2.44-.7,4.49,1.34,6.66,3.48,2.36,2.35,4.8,4.77,7.72,4.08.04-.01.08-.01.12-.02,2.04-.3,2.9-4.17,3.59-7.28.72-3.22,1.33-6,3.37-6.68,1.1-.38,2.33-.01,3.63,1.08h.01s.07.07.07.07c2.03,1.73-.08,11.37-2.5,16.2Z"/>
  <path d="M76.12,118.48c-1.82,5.24-4.41,8.05-7.49,8.14-5.86-.17-12.74-8.3-14.26-12.63-.05-.15-.08-.31-.08-.47,0-1.24.85-1.61,1.22-1.71,2.19-.63,3.96,1.13,5.83,2.99,1.95,1.94,3.97,3.94,6.33,3.39.05-.01.09-.01.13-.02,1.55-.21,2.26-3.39,2.83-5.95.62-2.8,1.16-5.21,3.01-5.84,1.01-.34,2.1-.02,3.26.94l.07.06c1.94,1.62-.18,9.17-.85,11.1Z"/>
  <g>
    <path d="M113.47,156.38c-1.15.36-.88,2.04.32,2.03,1.08,0,2.37-.21,3.7-.62s2.5-.97,3.4-1.58c.99-.67.26-2.21-.89-1.86l-6.54,2.03Z"/>
    <path d="M113.78,159.83c-1.24,0-2.24-.85-2.43-2.08-.19-1.23.51-2.35,1.7-2.72l6.54-2.03c1.2-.37,2.4.16,2.94,1.28.54,1.13.2,2.4-.84,3.1-1.05.71-2.35,1.32-3.78,1.76-1.42.44-2.84.68-4.11.69h-.02ZM113.47,156.38h0,0Z"/>
  </g>
  <path d="M303.69,54.92c-1.92-.89-4.51-.64-5.79-.44.08-.43.16-.87.25-1.32.22-1.17.46-2.38.58-3.19.09-.46.15-.86.22-1.24.06-.34.11-.66.18-.99.13-.67-.23-1.35-.87-1.6-.7-.28-.72-.29-7.06,4.18-.09-.83-.19-1.72-.29-2.61l-.18-1.72c-.12-1.04-.84-1.87-1.86-2.12-1.01-.25-2.04.15-2.62,1.01l-3.64,5.44s-.05.07-.07.11v-.23c0-1.04-.63-1.94-1.59-2.3-.97-.37-2.03-.1-2.71.68l-.24.26c-.76.88-1.67,1.91-2.58,2.94-.74.83-1.46,1.65-2.15,2.44-.42.49-.84.97-1.25,1.44-1.74-5.29-3.97-10.88-6.63-16.61-8.78-19.75-28.36-28.58-44.48-34.08-14.86-4.49-30.66-8.23-46.15-.52-5.75,3.14-12.28,7.27-18.59,11.26-7.52,4.75-14.62,9.24-20.19,11.99-5.93,2.75-14.03,5.17-20.44,6.14h-.02c-14.23-.06-28.5,4.37-40.81,13.04-19.42,13.67-30.53,35.53-29.73,58.44.26,14.96,5.43,29.5,14.61,41.28-6.3.42-11.96,2.43-16.59,5.95-.65.49-1.42,1.07-2.22,1.76-.35-1.73-.16-3.59.58-5.32.99-2.34,2.86-4.13,5.15-4.92.04-.01.08-.02.13-.04,1.15-.36,1.13-1.33,1.12-1.52-.06-.67-.62-1.23-1.29-1.31-3.44-.44-6.88-1.26-10.25-2.45C13.91,131.25-.21,106.47,3.37,81.07c.74-6.01,2.44-14.8,8.73-21.66,1.91-2.16,4.27-4.16,6.83-5.79,1.23-.84,2.23-1.37,3.46-1.48.04,0,.08,0,.13-.02,7.84-1.44,12.11,1.53,16.63,4.68,3.79,2.63,7.71,5.36,13.73,5.73.84.05,1.67-.35,2.16-1.04,2.54-3.62,6.88-7.64,10.54-9.77.67-.39.9-1.26.51-1.94s-1.26-.9-1.94-.51c-3.98,2.32-8.5,6.49-11.31,10.42-5.11-.38-8.49-2.73-12.07-5.22-4.79-3.33-9.75-6.77-18.7-5.15-1.9.19-3.4,1.05-4.7,1.93-2.75,1.75-5.3,3.92-7.38,6.26-6.82,7.44-8.65,16.82-9.43,23.19-3.76,26.69,11.18,52.8,34.74,60.72,2.24.79,4.53,1.43,6.82,1.91-1.45,1.19-2.61,2.75-3.37,4.54-1.2,2.84-1.29,5.96-.27,8.7-1.49,1.7-2.82,3.86-3.51,6.61-1.86,7.52,2.51,14.08,5.29,17.31,1.03,1.2,2.4,2.02,3.98,2.37,6.43,1.44,12.95,2.17,19.39,2.17.45,0,.9-.01,1.34-.01h.45c10.7-.18,20.8-.34,26.11-7.6,1.42-1.95,2.41-4.21,2.95-6.75,6.49,2.02,13.59,3.04,20.98,3.04,3.74,0,7.55-.26,11.4-.79.03.01.06,0,.09-.01-.04.11-.07.23-.1.35h0c-.02.37-.01.73.03,1.07h0c.16,2.01.97,3.66,2.42,4.97,2.53,2.29,6.87,3.16,12.03,3.16,11.84,0,27.95-4.6,36.08-7.19,4.48-1.33,10.57-2.93,15.95-4.35,3.35-.88,6.51-1.71,8.76-2.34l.87-.27c2.47-.74,4.43-1.33,6.71-2.78.71-.53,1.18-1.31,1.59-2.01.15-.24.28-.47.47-.73.88-1.39,1.7-2.95,2.43-4.57,4.8,2.82,10.68,5.51,15.59,5.51,1.32,0,2.58-.19,3.72-.64.18-.07,9.68-3.78,19.37-7.57l15.36-6c1.09-.45,1.93-.77,2.67-1.04.88-.33,1.64-.61,2.51-1,.31-.14.59-.35.82-.61,4.15-4.59,7.57-9.68,10.16-15.13,5.2-10.9,6.96-20.99,5.23-29.99-.02-.14-.68-3.48-2.47-7.76-2.13-5.05-5.1-9.55-7.12-12.38,5.91,1.31,14.39,2.2,17.81-3.88.92.5,2.16,1.05,3.36,1.2,3.87.73,7.14-1.88,8.57-6.8,1.85-6.39.05-14.78-6.08-17.22ZM91.84,169.36c-.28-1.12-.74-2.18-1.39-3.16-1.86-2.79-4.61-3.94-6.09-4.38-.75-.22-1.54.2-1.76.95-.22.75.2,1.54.95,1.77,1.11.32,3.18,1.18,4.53,3.23,1.73,2.6,1.71,6.13-.05,9.2-.06.1-.1.2-.13.31-1.18,1.13-2.57,1.98-4.14,2.64.71-2.81.14-5.63-1.7-8.41-1.86-2.8-4.61-3.95-6.09-4.39-.75-.22-1.54.21-1.76.96-.22.75.21,1.54.96,1.76,1.11.33,3.17,1.18,4.53,3.23,1.77,2.68,1.97,5.29.62,7.94-4.36,1.01-9.57,1.09-14.94,1.17h-.45c-6.65.11-13.41-.59-20.07-2.07-.98-.22-1.82-.72-2.45-1.45-2.42-2.83-6.25-8.5-4.69-14.79,1.15-4.64,4.66-7.3,6.99-9.06,4.75-3.6,10.73-5.47,17.44-5.47h.18c.11,0,.22,0,.33.01h.01s.02-.01.03,0c.01-.01.03-.01.05,0,.75.01,1.5.04,2.26.1,6.92.53,12.66,3.33,17.08,6.54s7.52,6.82,9.15,8.98c.61.81.9,1.76.83,2.7-.05.58-.12,1.14-.23,1.69ZM127.38,170c-11.54,1.7-22.74.95-32.49-2.15.01-.15.02-.31.02-.47,0-1.46-.49-2.9-1.41-4.12-3.5-4.62-13.27-15.49-28.27-16.63-.69-.05-1.37-.09-2.05-.1-9.51-11.43-15.1-26.43-15.36-41.28-.78-21.98,9.89-42.93,28.52-56.05,11.5-8.1,24.77-12.34,38.04-12.51h.01c.41-.01.82-.01,1.24,0h.03c7.87.05,15.71,1.54,23.18,4.51,4.02,1.57,7.93,3.56,11.66,5.91.01.01.01.02.02.02.21.13.42.26.63.4h.01c4.8,3.11,9.3,6.79,13.38,10.9.29.29.58.58.86.88,13.21,13.69,21.79,31.8,21.5,48.46v.12c0,3.79-.33,7.58-.97,11.31v.05c-1.1,6.44-3.15,12.69-6.06,18.49-.04.07-.07.14-.11.21-.5-.03-1.01-.08-1.54-.13-.79-.08-1.61-.15-2.44-.18-11.53-1.26-23.88,3.2-33.91,12.23-7.62,6.92-12.1,13.14-14.49,20.13ZM307.04,71.35c-.37,1.3-1.87,5.48-5.35,4.8-.03,0-.07,0-.11-.02-.68-.08-1.66-.46-2.67-1.04-.58-.34-1.29-.42-1.93-.23-.64.19-1.17.64-1.47,1.23-2.69,5.32-11.32,3.78-18.54,1.84-.06-.02-.12-.03-.18-.04-.28-.03-.57,0-.83.14-.06.03-.13.07-.19.12-.31.22-.52.56-.57.94-.1.63.08.88.96,2.04,1.55,2.08,5.7,7.61,8.37,13.96,1.69,4.01,2.31,7.17,2.31,7.2,1.61,8.39-.07,17.9-5.01,28.24-2.46,5.18-5.71,10.02-9.66,14.4-.75.34-1.42.59-2.26.9-.76.29-1.63.61-2.74,1.07l-15.33,5.99c-9.69,3.79-19.19,7.5-19.37,7.57-3.46,1.35-9.69-.43-17.18-4.88.85-2.24,1.5-4.51,1.84-6.54.17-1.12.3-2.23.42-3.3.83-7.06,1.32-11.34,9.31-11.75.24.31.5.62.76.91,1.94,2.16,4.32,3.87,7.08,5.06.07.04.14.06.22.09,2.55.85,5.23,1.28,7.89,1.28,1.18,0,2.36-.08,3.52-.26,2.62-.38,5.16-1.2,7.55-2.42.7-.35.98-1.21.62-1.9-.36-.7-1.21-.98-1.91-.62-2.11,1.08-4.36,1.8-6.68,2.14-3.34.49-6.83.18-10.08-.9-2.38-1.04-4.44-2.51-6.1-4.36-4.07-4.53-4.65-10.13-4.63-13.07.04-5.41,2.38-11.68,2.4-11.74.28-.73-.09-1.55-.82-1.83-.74-.27-1.55.09-1.83.83-.02.06-2.55,6.77-2.58,12.72-.03,4.15.94,8.06,2.79,11.37-8.81,1.15-9.55,7.47-10.33,14.12-.12,1.05-.24,2.13-.4,3.19-.67,3.97-2.62,8.95-4.93,12.63-.19.26-.36.55-.54.86-.26.44-.59.98-.76,1.11-1.87,1.19-3.57,1.7-5.93,2.41l-.85.26c-2.2.61-5.35,1.44-8.68,2.32-5.4,1.42-11.52,3.03-16.07,4.38-15.74,5.02-34.04,8.89-42.38,6.24,1.09-1.72,2.82-3.73,5.46-5.3,3.63-2.16,7.21-2.39,9.03-2.32.77,0,1.44-.59,1.46-1.37.03-.78-.58-1.44-1.37-1.46-2.6-.09-6.53.31-10.56,2.71-3.24,1.93-5.31,4.42-6.58,6.48-.15-.1-.3-.22-.43-.34-.98-.88-1.49-2.04-1.52-3.52t0-.01c.73-2.45,1.96-4.75,3.58-6.69,2.57-3.1,5.61-4.73,7.7-5.55.73-.28,1.09-1.11.81-1.83-.29-.73-1.11-1.09-1.84-.81-1.37.54-3.1,1.38-4.89,2.67,2.25-3.1,5.12-6.21,8.74-9.5,9.44-8.5,21.01-12.7,31.75-11.5.04,0,.08,0,.12.01.75.01,1.5.09,2.3.16.71.07,1.45.14,2.17.17h.01c.07.02.14.04.21.05l7.75,1.22c.08.01.15.02.23.02.68,0,1.29-.5,1.4-1.2.12-.77-.41-1.5-1.18-1.62l-5.82-.92c2.73-5.57,4.68-11.54,5.82-17.69,17.2-3.46,31.47-16.82,37.37-35.08,5.69-17.59,2.08-35.33-9.64-47.44-.55-.57-1.44-.58-2.01-.04-.56.55-.57,1.45-.03,2.01,10.98,11.35,14.34,28.02,8.99,44.6-5.47,16.91-18.46,29.36-34.19,32.94.47-3.23.7-6.5.7-9.77v-.09c.3-17.03-8.28-35.51-21.57-49.65,3.03-2.19,7.26-5.82,9.61-8.51.98-1.02,1.83-2.08,2.65-3.11,1.73-2.16,3.37-4.2,5.75-5.34,4.82-2.19,8.82-2.44,11.89-.73,3.49,1.93,5.78,6.38,6.66,12.94,1.07,5.74.21,10.75-.7,13.94-.21.75.23,1.53.98,1.75.13.04.26.05.39.05.61,0,1.18-.4,1.36-1.03.99-3.48,1.92-8.94.77-15.16-.99-7.41-3.78-12.58-8.08-14.97-3.9-2.16-8.76-1.95-14.47.64-2.99,1.43-4.9,3.82-6.76,6.13-.79.99-1.6,2-2.53,2.97-2.37,2.71-6.65,6.35-9.52,8.37-3.92-3.91-8.2-7.44-12.76-10.45,2.1-4.46,4.67-8.68,7.63-12.56,5.63-7.38,10.08-13.21,16.72-14.38.3-.01,2.42-.04,13.52.89.77.06,1.47-.52,1.53-1.3.07-.78-.51-1.46-1.29-1.53-10.69-.89-13.28-.92-13.9-.89-.12.01-.22.02-.32.04-7.77,1.36-12.51,7.57-18.51,15.45-3.02,3.95-5.63,8.23-7.79,12.74-3.57-2.18-7.29-4.04-11.12-5.53-4.75-1.9-9.66-3.22-14.62-3.97,4.19-1.18,8.39-2.69,11.95-4.34,5.74-2.83,12.9-7.36,20.48-12.16,6.28-3.96,12.77-8.07,18.39-11.14,14.51-7.22,29.7-3.6,43.97.71,15.53,5.3,34.43,13.79,42.77,32.55,2.72,5.88,4.98,11.58,6.72,16.94.27.84.98,1.47,1.83,1.65.87.19,1.74-.1,2.33-.76.56-.62,1.13-1.29,1.72-1.97.68-.78,1.38-1.59,2.12-2.41.76-.85,1.51-1.7,2.17-2.46v2.68c.02.33.01.61,0,.81-.04,1.25.59,1.65,1.13,1.77.58.12,1.2-.18,1.52-.67.25-.37,1.33-1.99,2.61-3.9l3.06-4.57.08.68c.12,1.14.24,2.28.36,3.28.1.87.64,1.59,1.44,1.95.79.35,1.69.27,2.41-.23.96-.68,2.27-1.61,3.44-2.43-.11.64-.25,1.35-.38,2.04-.13.65-.26,1.3-.36,1.89-.15.8.11,1.62.69,2.19.58.57,1.41.82,2.22.66,1.39-.28,3.44-.41,4.6.14.03.02.06.03.09.04,4.54,1.77,5.95,8.57,4.43,13.81Z"/>
  <path d="M48.04,133.97c-.58,0-1.12-.35-1.33-.93-.57-1.53-1.11-2.97-1.63-4.34-4.95-13.1-7.43-19.68-3.5-36.23.51-2.73.57-4.53-.66-6.01-.55-.66-1.11-.95-1.9-1.35-.96-.49-2.15-1.1-3.4-2.55-1.75-2.09-2.13-3.56-2.5-4.98-.09-.35-.18-.7-.3-1.08-.94-2.96-3.3-5.88-6.02-7.45-1.59-.88-3.08-.98-4.54-.28-3.65,1.76-6.45,8.03-7.33,13.32-1.21,5.47,1.85,13.5,3.92,16.08.49.61.39,1.5-.22,1.99-.61.49-1.5.39-1.99-.22-2.73-3.41-5.84-12.26-4.49-18.39.96-5.75,4.15-13.06,8.88-15.34,2.28-1.1,4.77-.98,7.17.36,3.37,1.94,6.16,5.41,7.32,9.06.13.43.24.83.34,1.22.33,1.27.59,2.27,1.92,3.85.87,1.01,1.68,1.42,2.53,1.86.88.45,1.87.96,2.79,2.07,2.12,2.58,1.78,5.57,1.24,8.41-3.74,15.78-1.51,21.69,3.38,34.64.52,1.37,1.06,2.81,1.63,4.35.27.73-.1,1.55-.84,1.82-.16.06-.33.09-.49.09Z"/>
  <path d="M165.4,59.31c-.28-.1-.54-.29-.71-.57-.06-.1-.11-.2-.15-.31.29.29.58.58.86.88Z"/>
  <path d="M115.63,36.69c-.19.03-.37.06-.55.08-.24.03-.47,0-.69-.08.41-.01.82-.01,1.24,0Z"/>
  <path d="M126.88,174.34c-.13-.28-.16-.61-.07-.93.01-.04.02-.09.04-.13-.02.36-.01.72.03,1.06Z"/>
  <path d="M209.32,33.63c-.23,0-.46-.06-.68-.17l-3.92-2.13c-.69-.38-1.17-1.07-1.26-1.85-.1-.78.19-1.57.77-2.11l2.85-2.63-6.24-.32c-1.06-.05-1.96-.78-2.24-1.81-.28-1.03.13-2.11,1.02-2.69l5.81-3.81c.65-.43,1.53-.25,1.96.41.43.65.25,1.53-.41,1.96l-4.83,3.17,5.98.31c.99.05,1.85.69,2.18,1.62s.08,1.97-.64,2.64l-3.12,2.88,3.45,1.88c.69.37.94,1.23.57,1.92-.26.47-.74.74-1.25.74Z"/>
</svg>