<?xml version="1.0" encoding="UTF-8"?>
<svg id="Layer_1" data-name="Layer 1" xmlns="http://www.w3.org/2000/svg" viewBox="0 0 255.83 158.3">
  <defs>
    <style>
      .cls-1 {
        fill: #172424;
      }
    </style>
  </defs>
  <g>
    <path class="cls-1" d="M30.39,143.06h2.65v6h6.95v-6h2.65v14.87h-2.65v-6.59h-6.95v6.59h-2.65v-14.87Z"/>
    <path class="cls-1" d="M56.93,142.68c4.64,0,8.02,3,8.02,7.77s-3.38,7.85-8.02,7.85-7.96-3.21-7.96-7.85,3.38-7.77,7.96-7.77ZM56.96,155.93c3.04,0,5.12-2.31,5.12-5.48s-2.04-5.44-5.12-5.44-5.1,2.37-5.1,5.44,2.08,5.48,5.1,5.48Z"/>
    <path class="cls-1" d="M73.67,145.37h-4.56v-2.31h11.76v2.31h-4.56v12.56h-2.65v-12.56Z"/>
    <path class="cls-1" d="M86.38,143.06h9.85v2.31h-7.2v3.78h6.82v2.23h-6.82v4.2h7.58v2.35h-10.23v-14.87Z"/>
    <path class="cls-1" d="M102.97,143.06h2.65v12.51h6.32v2.35h-8.97v-14.87Z"/>
    <path class="cls-1" d="M136.33,154.38l3.46,3.55h-3.36l-1.64-1.7c-.99,1.16-2.29,2-4.45,2-2.62,0-4.98-1.49-4.98-4.33,0-2.21,1.57-3.51,3.23-4.22-.99-1.01-1.6-2.06-1.6-3.34,0-2.54,2.14-3.65,4.2-3.65s4.12,1.18,4.12,3.61c0,1.91-1.37,3.17-3.04,3.95l2.44,2.54,1.72-2.71h2.88l-2.98,4.3ZM130.04,151.29c-1.09.4-2.06,1.07-2.06,2.5s1.32,2.33,2.46,2.33c1.22,0,2.06-.55,2.77-1.53l-3.17-3.3ZM129.51,146.38c0,.84.48,1.62,1.32,2.37,1.15-.48,2.14-1.26,2.14-2.37,0-.9-.71-1.66-1.72-1.66s-1.74.69-1.74,1.66Z"/>
    <path class="cls-1" d="M156.88,145.37h-4.56v-2.31h11.76v2.31h-4.56v12.56h-2.65v-12.56Z"/>
    <path class="cls-1" d="M169.58,143.06h5.17c2.79,0,5.48,1.11,5.48,4.26,0,2.14-1.32,3.55-3.4,4.01l3.97,6.59h-3.19l-3.44-6.3h-1.93v6.3h-2.65v-14.87ZM174.39,149.47c1.49,0,3.19-.36,3.19-2.16,0-1.62-1.6-2.02-2.96-2.02h-2.39v4.18h2.16Z"/>
    <path class="cls-1" d="M191.23,143.06h2.29l6.4,14.87h-3.02l-1.39-3.4h-6.45l-1.34,3.4h-2.96l6.47-14.87ZM194.59,152.26l-2.29-6.05-2.33,6.05h4.62Z"/>
    <path class="cls-1" d="M202.7,143.06h2.96l4.09,11.44h.08l4.14-11.44h2.86l-5.96,14.87h-2.29l-5.88-14.87Z"/>
    <path class="cls-1" d="M222.04,143.06h9.85v2.31h-7.2v3.78h6.82v2.23h-6.82v4.2h7.58v2.35h-10.22v-14.87Z"/>
    <path class="cls-1" d="M238.63,143.06h2.65v12.51h6.32v2.35h-8.96v-14.87Z"/>
  </g>
  <g>
    <path class="cls-1" d="M75.3,57.59v.31c0,.94-.71,1.49-1.88,1.49h-19.38c-1.1,0-1.8-.55-1.8-1.49v-.31c0-2.2,4.47-3.22,2.43-6.67l-10.98-18.51-6.12,6.2v12.16c0,3.61,3.45,4.63,3.45,6.82v.31c0,.94-.71,1.49-1.88,1.49h-17.1c-1.1,0-1.88-.55-1.88-1.49v-.31c0-2.2,3.14-3.22,3.14-6.82V12.25c0-3.61-3.14-4.55-3.14-6.75v-.31c0-.94.79-1.49,1.88-1.49h17.1c1.18,0,1.88.55,1.88,1.49v.31c0,2.2-3.45,3.14-3.45,6.75v17.89l17.34-17.81c2.98-3.06-.55-4.63-.55-6.82v-.31c0-.94.71-1.49,1.88-1.49h12.79c1.1,0,1.88.55,1.88,1.49v.31c0,2.2-4.08,3.29-7.45,6.82l-10.12,10.28,16.63,28.16c2.59,4.39,5.33,4.63,5.33,6.82Z"/>
    <path class="cls-1" d="M73.03,40.49c0-11.61,9.96-19.53,21.18-19.53,11.77,0,21.49,8.16,21.49,19.69s-9.49,19.53-20.94,19.53-21.73-8.32-21.73-19.69ZM101.42,46.69c0-6.12-3.22-21.89-9.41-21.89-3.76,0-5.1,3.45-5.1,9.81s3.14,21.73,9.49,21.73c3.69,0,5.02-3.77,5.02-9.65Z"/>
    <path class="cls-1" d="M160.65,57.28c0,2.04-4.55,2.59-8.86,2.59-4.71,0-6.98-.94-7.61-3.77-1.65,2.27-4.79,4.08-9.96,4.08-8.39,0-14.83-3.84-14.83-11.92s6.67-12,14.12-12c3.29,0,5.96.78,7.92,1.96v-.24c-.94-9.26-1.49-13.26-5.57-13.26-5.41,0-3.22,10.51-10.2,10.51-3.29,0-5.49-2.04-5.49-5.1,0-6.43,7.69-9.18,15.69-9.18,10.51,0,17.81,6.12,19.06,15.85l1.73,14.04c.71,5.57,4,4.24,4,6.43ZM142.61,50.53l-.31-3.61c-.55-4.71-2.59-6.51-4.86-6.51s-4,2.12-4,5.33c0,5.57,1.88,10.43,5.1,10.43,2.59,0,4.08-2.98,4.08-5.65Z"/>
    <path class="cls-1" d="M162.29,57.91v-.31c0-2.27,3.06-3.14,3.06-6.75V15c0-3.69-3.06-4.71-3.06-6.67v-.31c0-.86.71-1.25,1.73-1.8l11.85-5.81c2.2-1.1,3.61.24,3.61,1.65v48.79c0,3.61,3.45,4.47,3.45,6.75v.31c0,.94-.78,1.49-1.88,1.49h-16.94c-1.1,0-1.8-.55-1.8-1.49Z"/>
    <path class="cls-1" d="M227.64,57.28c0,2.04-4.55,2.59-8.86,2.59-4.71,0-6.98-.94-7.61-3.77-1.65,2.27-4.79,4.08-9.96,4.08-8.39,0-14.83-3.84-14.83-11.92s6.67-12,14.12-12c3.29,0,5.96.78,7.92,1.96v-.24c-.94-9.26-1.49-13.26-5.57-13.26-5.41,0-3.22,10.51-10.2,10.51-3.29,0-5.49-2.04-5.49-5.1,0-6.43,7.69-9.18,15.69-9.18,10.51,0,17.81,6.12,19.06,15.85l1.73,14.04c.71,5.57,4,4.24,4,6.43ZM209.6,50.53l-.31-3.61c-.55-4.71-2.59-6.51-4.86-6.51s-4,2.12-4,5.33c0,5.57,1.88,10.43,5.1,10.43,2.59,0,4.08-2.98,4.08-5.65Z"/>
  </g>
  <g>
    <path class="cls-1" d="M0,115.5v-.28c0-1.95,2.79-2.79,2.79-6.07v-34.17c0-3.28-2.79-4.11-2.79-6.07v-.28c0-.84.63-1.33,1.6-1.33h31.94c1.53,0,2.09.63,2.37,2.16l1.67,8.79c.21,1.25-.56,2.02-1.74,2.02h-.35c-3.9,0-5.93-8.16-10.88-8.16h-6.14c-1.67,0-3.14.84-3.14,3.42v13.67h7.32c3.7,0,4.11-5.58,6.14-5.58h.56c.84,0,1.39.63,1.39,1.6v12.55c0,.98-.56,1.6-1.39,1.6h-.56c-2.02,0-2.44-5.3-6.14-5.3h-7.32v12.83c0,2.37.98,5.09,4.18,5.09h7.32c4.95,0,6.14-8.65,10.32-8.65h.63c1.12,0,1.6,1.19,1.46,2.09l-1.53,9.13c-.28,1.53-.84,2.23-2.44,2.23H1.67c-.98,0-1.67-.49-1.67-1.32Z"/>
    <path class="cls-1" d="M42.12,109.29c0-3.14,2.16-4.46,4.95-4.46,6.97,0,4.6,9.55,10.39,9.55,2.09,0,3.77-1.05,3.77-3.84,0-9.14-18.48-3.77-18.48-17.29,0-6.21,6-10.6,14.71-10.6s14.64,3.84,14.64,8.37c0,2.44-2.09,4.25-4.67,4.25-6.76,0-4.53-9.41-9.34-9.41-2.16,0-3.28,1.95-3.28,3.98,0,9.55,17.85,4.53,17.85,17.36,0,5.79-5.51,10.25-15.2,10.25-8.79,0-15.34-3.28-15.34-8.16Z"/>
    <path class="cls-1" d="M75.59,100.02c0-10.88,8.23-17.29,17.71-17.36,8.16-.07,14.85,4.11,14.85,10.32,0,2.09-1.32,4.18-5.09,4.04-7.11-.42-6.49-11.02-11.65-10.95-2.93.07-4.88,3.56-4.88,7.81,0,9.06,4.46,15.06,11.37,15.06,3.9,0,6.28-2.09,7.74-4.04.91-1.12,2.65-.77,2.65.77-.21,6.07-5.02,11.85-14.57,11.85-10.95,0-18.13-8.37-18.13-17.5Z"/>
    <path class="cls-1" d="M148.11,114.94c0,1.81-4.04,2.3-7.88,2.3-4.18,0-6.21-.84-6.76-3.35-1.46,2.02-4.25,3.63-8.86,3.63-7.46,0-13.18-3.42-13.18-10.6s5.93-10.67,12.55-10.67c2.93,0,5.3.7,7.04,1.74v-.21c-.84-8.23-1.32-11.78-4.95-11.78-4.81,0-2.86,9.34-9.06,9.34-2.93,0-4.88-1.81-4.88-4.53,0-5.72,6.83-8.16,13.95-8.16,9.34,0,15.83,5.44,16.95,14.09l1.53,12.48c.63,4.95,3.56,3.77,3.56,5.72ZM132.07,108.94l-.28-3.21c-.49-4.18-2.3-5.79-4.32-5.79s-3.56,1.88-3.56,4.74c0,4.95,1.67,9.27,4.53,9.27,2.3,0,3.63-2.65,3.63-5.02Z"/>
    <path class="cls-1" d="M187.99,99.53c0,11.02-7.81,17.99-16.46,17.99-2.93,0-5.23-.7-7.11-2.02v8.44c0,3.21,3.14,4.04,3.14,6v.28c0,.84-.7,1.32-1.67,1.32h-14.78c-.98,0-1.67-.49-1.67-1.32v-.28c0-1.95,2.79-2.79,2.79-6v-28.59c0-3-3.35-3.35-3.35-5.37v-.35c0-.84.63-1.46,1.6-2.02l9.2-4.53c2.09-.98,2.93,0,2.93,1.39v2.02c1.74-2.44,4.95-3.84,8.93-3.84,7.88,0,16.46,5.51,16.46,16.88ZM175.72,105.32c0-7.53-2.02-19.25-7.11-19.25-2.51,0-4.18,2.23-4.18,5.51v12.62c0,5.93,2.93,9.9,6,9.9,3.56,0,5.3-3.07,5.3-8.79Z"/>
    <path class="cls-1" d="M222.51,106.78c-.14,3.84-5.02,10.74-14.16,10.74-10.11,0-17.22-7.04-17.22-17.64s8.02-17.22,17.15-17.22,13.32,5.16,13.32,9.55c0,2.09-1.12,3.49-2.72,4.32l-13.88,7.81c1.81,2.86,4.53,4.53,7.95,4.53,3,0,5.72-1.39,6.97-3.07.98-.98,2.65-.56,2.58.98ZM202.35,93.39c0,2.72.35,5.23,1.05,7.32l6.49-3.9c1.12-.77,1.81-2.09,1.81-3.56,0-2.23-1.12-7.18-4.67-7.18-2.86,0-4.67,3.28-4.67,7.32Z"/>
    <path class="cls-1" d="M225.29,109.29c0-3.14,2.16-4.46,4.95-4.46,6.97,0,4.6,9.55,10.39,9.55,2.09,0,3.77-1.05,3.77-3.84,0-9.14-18.48-3.77-18.48-17.29,0-6.21,6-10.6,14.71-10.6s14.64,3.84,14.64,8.37c0,2.44-2.09,4.25-4.67,4.25-6.76,0-4.53-9.41-9.34-9.41-2.16,0-3.28,1.95-3.28,3.98,0,9.55,17.85,4.53,17.85,17.36,0,5.79-5.51,10.25-15.2,10.25-8.79,0-15.34-3.28-15.34-8.16Z"/>
  </g>
</svg>